<svg xmlns="http://www.w3.org/2000/svg" xmlns:xlink="http://www.w3.org/1999/xlink" width="500" zoomAndPan="magnify" viewBox="0 0 375 374.999991" height="500" preserveAspectRatio="xMidYMid meet" version="1.0"><defs><clipPath id="4337a4c490"><path d="M 17.695312 17.695312 L 357.304688 17.695312 L 357.304688 357.304688 L 17.695312 357.304688 Z M 17.695312 17.695312 " clip-rule="nonzero"/></clipPath></defs><rect x="-37.5" width="450" fill="#ffffff" y="-37.499999" height="449.999989" fill-opacity="1"/><rect x="-37.5" width="450" fill="#ffffff" y="-37.499999" height="449.999989" fill-opacity="1"/><rect x="-37.5" width="450" fill="#ffffff" y="-37.499999" height="449.999989" fill-opacity="1"/><rect x="-37.5" width="450" fill="#000000" y="-37.499999" height="449.999989" fill-opacity="1"/><g clip-path="url(#4337a4c490)"><path fill="#ffffff" d="M 17.695312 17.695312 L 357.304688 17.695312 L 357.304688 357.304688 L 17.695312 357.304688 Z M 17.695312 17.695312 " fill-opacity="1" fill-rule="nonzero"/></g><path fill="#000000" d="M 63.632812 277.347656 L 63.632812 250.984375 C 63.632812 244.441406 65.316406 238.503906 68.679688 233.175781 C 72.046875 227.847656 76.722656 223.875 82.703125 221.253906 C 96.355469 215.273438 108.648438 210.972656 119.585938 208.355469 C 130.523438 205.738281 141.789062 204.425781 153.382812 204.425781 C 164.976562 204.425781 176.195312 205.738281 187.039062 208.355469 C 197.882812 210.972656 210.128906 215.273438 223.78125 221.253906 C 229.761719 223.875 234.484375 227.847656 237.945312 233.175781 C 241.402344 238.503906 243.132812 244.441406 243.132812 250.984375 L 243.132812 277.347656 Z M 259.960938 277.347656 L 259.960938 250.984375 C 259.960938 239.207031 256.96875 229.53125 250.984375 221.957031 C 245.003906 214.382812 237.148438 208.261719 227.425781 203.585938 C 240.328125 205.082031 252.480469 207.277344 263.886719 210.175781 C 275.292969 213.074219 284.546875 216.394531 291.652344 220.132812 C 297.824219 223.6875 302.683594 228.082031 306.238281 233.316406 C 309.789062 238.550781 311.566406 244.441406 311.566406 250.984375 L 311.566406 277.347656 Z M 153.382812 187.320312 C 141.042969 187.320312 130.945312 183.390625 123.089844 175.539062 C 115.238281 167.6875 111.3125 157.589844 111.3125 145.25 C 111.3125 132.90625 115.238281 122.8125 123.089844 114.957031 C 130.945312 107.105469 141.042969 103.179688 153.382812 103.179688 C 165.722656 103.179688 175.820312 107.105469 183.671875 114.957031 C 191.527344 122.8125 195.453125 132.90625 195.453125 145.25 C 195.453125 157.589844 191.527344 167.6875 183.671875 175.539062 C 175.820312 183.390625 165.722656 187.320312 153.382812 187.320312 Z M 254.351562 145.25 C 254.351562 157.589844 250.425781 167.6875 242.570312 175.539062 C 234.71875 183.390625 224.621094 187.320312 212.28125 187.320312 C 210.222656 187.320312 207.933594 187.179688 205.410156 186.898438 C 202.886719 186.617188 200.59375 186.105469 198.539062 185.355469 C 203.023438 180.679688 206.4375 174.929688 208.773438 168.105469 C 211.113281 161.28125 212.28125 153.664062 212.28125 145.25 C 212.28125 136.835938 211.113281 129.402344 208.773438 122.953125 C 206.4375 116.5 203.023438 110.5625 198.539062 105.140625 C 200.59375 104.582031 202.886719 104.113281 205.410156 103.738281 C 207.933594 103.367188 210.222656 103.179688 212.28125 103.179688 C 224.621094 103.179688 234.71875 107.105469 242.570312 114.957031 C 250.425781 122.8125 254.351562 132.90625 254.351562 145.25 Z M 80.460938 260.519531 L 226.304688 260.519531 L 226.304688 250.984375 C 226.304688 247.992188 225.414062 245.09375 223.640625 242.289062 C 221.863281 239.484375 219.667969 237.523438 217.046875 236.402344 C 203.585938 230.417969 192.273438 226.398438 183.113281 224.339844 C 173.949219 222.285156 164.039062 221.253906 153.382812 221.253906 C 142.722656 221.253906 132.769531 222.285156 123.511719 224.339844 C 114.257812 226.398438 102.898438 230.417969 89.433594 236.402344 C 86.816406 237.523438 84.667969 239.484375 82.984375 242.289062 C 81.300781 245.09375 80.460938 247.992188 80.460938 250.984375 Z M 153.382812 170.492188 C 160.675781 170.492188 166.703125 168.105469 171.472656 163.339844 C 176.242188 158.570312 178.625 152.539062 178.625 145.25 C 178.625 137.957031 176.242188 131.925781 171.472656 127.160156 C 166.703125 122.390625 160.675781 120.007812 153.382812 120.007812 C 146.089844 120.007812 140.058594 122.390625 135.292969 127.160156 C 130.523438 131.925781 128.140625 137.957031 128.140625 145.25 C 128.140625 152.539062 130.523438 158.570312 135.292969 163.339844 C 140.058594 168.105469 146.089844 170.492188 153.382812 170.492188 Z M 153.382812 260.519531 Z M 153.382812 145.25 Z M 153.382812 145.25 " fill-opacity="1" fill-rule="nonzero"/></svg>